<?xml version="1.0" encoding="utf-8" ?>
<!DOCTYPE svg PUBLIC '-//W3C//DTD SVG 20001102//EN' 'http://www.w3.org/TR/2000/CR-SVG-20001102/DTD/svg-20001102.dtd'>
<svg height="269" width="255" xmlns="http://www.w3.org/2000/svg">
<rect height="96" style="fill:#ffffff; stroke:#ffffff; stroke-width:1" width="224" x="14" y="14"/>
<rect height="2" style="fill:#ffffff; stroke:#ffffff; stroke-width:1" width="224" x="14" y="14"/>
<rect height="2" style="fill: none; stroke:#000000; stroke-width:1" width="224" x="14" y="14"/>
<rect height="21" style="fill:#ffffff; stroke:#ffffff; stroke-width:1" width="224" x="14" y="16"/>
<text style="font-family:Dialog; font-size:10;" x="99" y="30">
Phonebook</text>
<rect height="50" style="fill:#ffffff; stroke:#ffffff; stroke-width:1" width="223" x="15" y="59"/>
<line style="fill:#000000; stroke:#000000; stroke-width:1" x1="15" x2="238" y1="59" y2="59"/>
<text style="font-family:Dialog; font-size:10;" x="18" y="74">
addEntry(name : string,number : int) : void</text>
<text style="font-family:Dialog; font-size:10;" x="18" y="88">
deleteEntry(name : string) : void</text>
<text style="font-family:Dialog; font-size:10;" x="18" y="102">
searchEntry(name : string) : void</text>
<rect height="20" style="fill:#ffffff; stroke:#ffffff; stroke-width:1" width="223" x="15" y="38"/>
<line style="fill:#000000; stroke:#000000; stroke-width:1" x1="15" x2="238" y1="38" y2="38"/>
<rect height="96" style="fill: none; stroke:#000000; stroke-width:1" width="224" x="14" y="14"/>
<rect height="81" style="fill:#ffffff; stroke:#ffffff; stroke-width:1" width="136" x="62" y="174"/>
<rect height="2" style="fill:#ffffff; stroke:#ffffff; stroke-width:1" width="136" x="62" y="174"/>
<rect height="2" style="fill: none; stroke:#000000; stroke-width:1" width="136" x="62" y="174"/>
<rect height="21" style="fill:#ffffff; stroke:#ffffff; stroke-width:1" width="136" x="62" y="176"/>
<text style="font-family:Dialog; font-size:10;" x="91" y="190">
PhonebookEntry</text>
<rect height="20" style="fill:#ffffff; stroke:#ffffff; stroke-width:1" width="135" x="63" y="235"/>
<line style="fill:#000000; stroke:#000000; stroke-width:1" x1="63" x2="198" y1="235" y2="235"/>
<rect height="36" style="fill:#ffffff; stroke:#ffffff; stroke-width:1" width="135" x="63" y="198"/>
<line style="fill:#000000; stroke:#000000; stroke-width:1" x1="63" x2="198" y1="198" y2="198"/>
<text style="font-family:Dialog; font-size:10;" x="66" y="213">
number : int</text>
<text style="font-family:Dialog; font-size:10;" x="66" y="227">
name : string</text>
<rect height="81" style="fill: none; stroke:#000000; stroke-width:1" width="136" x="62" y="174"/>
<polyline points="126,110 126,174" style="fill:none; stroke:#000000; stroke-width:1"/>
<polygon points="126,110 131,120 126,130 121,120" style="fill:#ffffff; stroke:#ffffff; stroke-width:1"/>
<polygon points="126,110 131,120 126,130 121,120" style="fill:none; stroke:#000000; stroke-width:1"/>
<text style="font-family:Dialog; font-size:10;" x="138" y="131">
1</text>
<text style="font-family:Dialog; font-size:10;" x="133" y="165">
0..*</text>
</svg>
